# xmcd CD database file
#
# Track frame offsets:
#	150
#	14698
#	29351
#	42920
#	53570
#	68943
#	83045
#	97851
#	113787
#	127485
#	143771
#	159397
#	175792
#	190027
#	205296
#	218352
#	233682
#	248528
#	263612
#	278457
#
# Disc length: 3885 seconds
#
# Revision: 0
# Processed by: cddbd v1.5.2PL0 Copyright (c) Steve Scherf et al.
# Submitted via: CDex 1.60beta1-cs1
#
DISCID=060f2b14
DTITLE=João Victor e Raphael - Ao Vivo
DYEAR=2008
DGENRE=Sertanejo
TTITLE0=Amor Sem Compromisso
TTITLE1=A Gente Ainda se Ama
TTITLE2=Engano
TTITLE3=Sem Vergonha
TTITLE4=Meu Sonho
TTITLE5=Feitos Um Pro Outro
TTITLE6=Bom Ti Vê
TTITLE7=Loucuras de Amor
TTITLE8=A Vaca já Foi Pro Brejo
TTITLE9=Solidão me Machuca
TTITLE10=Mais Que um Amigo
TTITLE11=Românticos
TTITLE12=À Flor da Pele
TTITLE13=Paixão de Reveillon
TTITLE14=Pescador
TTITLE15=Ê Saudade
TTITLE16=Documento
TTITLE17=Lua de Mel
TTITLE18=Quero Namorar
TTITLE19=Conselho
EXTD=YEAR: 2008
EXTT0=
EXTT1=
EXTT2=
EXTT3=
EXTT4=
EXTT5=
EXTT6=
EXTT7=
EXTT8=
EXTT9=
EXTT10=
EXTT11=
EXTT12=
EXTT13=
EXTT14=
EXTT15=
EXTT16=
EXTT17=
EXTT18=
EXTT19=
PLAYORDER=
